# xmcd
#
# Track frame offsets:
#	150
#	14364
#	35501
#	56669
#	73775
#	92614
#	115198
#	134734
#	157290
#	178867
#	197177
#	220515
#	241053
#
# Disc length: 3533 seconds
#
# Revision: 1
# Processed by: cddbd v1.5.2PL0 Copyright (c) Steve Scherf et al.
# Submitted via: EasyCDDAExtractor 15.3.0.1
#
DISCID=be0dcb0d
DTITLE=Alejandro Sanz - Sirope
DYEAR=2015
DGENRE=Latin
TTITLE0=A Mi No Me Importa
TTITLE1=Capitan Tapon
TTITLE2=Pero Tu
TTITLE3=La Guarida Del Calor
TTITLE4=Tu La Necesitas
TTITLE5=Un Zombie A La Intemperie
TTITLE6=Todo Huele A Ti
TTITLE7=No Madura El Coco
TTITLE8=La Vida Que Respira
TTITLE9=Suena La Pelota (Con Juan Luis Guerra)
TTITLE10=A Que No Me Dejas
TTITLE11=El Silencio De Los Cuervos
TTITLE12=El Club De La Verdad
EXTD=
EXTT0=
EXTT1=
EXTT2=
EXTT3=
EXTT4=
EXTT5=
EXTT6=
EXTT7=
EXTT8=
EXTT9=
EXTT10=
EXTT11=
EXTT12=
PLAYORDER=
